<?xml version="1.0" encoding="utf-8" standalone="no"?>
<!DOCTYPE svg PUBLIC "-//W3C//DTD SVG 1.1//EN"
  "http://www.w3.org/Graphics/SVG/1.1/DTD/svg11.dtd">
<svg xmlns:xlink="http://www.w3.org/1999/xlink" width="374.173228pt" height="164.409449pt" viewBox="0 0 374.173228 164.409449" xmlns="http://www.w3.org/2000/svg" version="1.1">
 <metadata>
  <rdf:RDF xmlns:dc="http://purl.org/dc/elements/1.1/" xmlns:cc="http://creativecommons.org/ns#" xmlns:rdf="http://www.w3.org/1999/02/22-rdf-syntax-ns#">
   <cc:Work>
    <dc:type rdf:resource="http://purl.org/dc/dcmitype/StillImage"/>
    <dc:date>2026-08-04T06:12:13.370384</dc:date>
    <dc:format>image/svg+xml</dc:format>
    <dc:creator>
     <cc:Agent>
      <dc:title>Matplotlib v3.11.1, https://matplotlib.org/</dc:title>
     </cc:Agent>
    </dc:creator>
   </cc:Work>
  </rdf:RDF>
 </metadata>
 <defs>
  <style type="text/css">*{stroke-linejoin: round; stroke-linecap: butt}</style>
 </defs>
 <g id="figure_1">
  <g id="patch_1">
   <path d="M 0 164.409449 
L 374.173228 164.409449 
L 374.173228 0 
L 0 0 
z
" style="fill: #ffffff"/>
  </g>
  <g id="axes_1">
   <g id="patch_2">
    <path d="M 48.188976 121.889764 
L 188.503937 121.889764 
L 188.503937 14.173228 
L 48.188976 14.173228 
z
" style="fill: #ffffff"/>
   </g>
   <g id="FillBetweenPolyCollection_1">
    <defs>
     <path id="m0fd0346186" d="M 48.188976 -44.577547 
L 48.188976 -43.812283 
L 49.07146 -43.812283 
L 49.953944 -43.812283 
L 50.836428 -43.812283 
L 51.718912 -43.812283 
L 52.601397 -43.812283 
L 53.483881 -43.812283 
L 54.366365 -43.812283 
L 55.248849 -43.812283 
L 56.131333 -43.812283 
L 57.013817 -43.812283 
L 57.896301 -43.812283 
L 58.778785 -43.812283 
L 59.661269 -43.812283 
L 60.543753 -43.812283 
L 61.426237 -43.812283 
L 62.308721 -43.812283 
L 63.191205 -43.812283 
L 64.073689 -43.812283 
L 64.956173 -43.812283 
L 65.838657 -43.812283 
L 66.721141 -43.812283 
L 67.603625 -43.812283 
L 68.486109 -43.812283 
L 69.368593 -43.812283 
L 70.251077 -43.812283 
L 71.133561 -43.812283 
L 72.016045 -43.812283 
L 72.898529 -43.812283 
L 73.781013 -43.812283 
L 74.663497 -43.812283 
L 75.545981 -43.812283 
L 76.428465 -43.812283 
L 77.310949 -43.812283 
L 78.193433 -43.812283 
L 79.075917 -43.812283 
L 79.958401 -43.812283 
L 80.840885 -43.812283 
L 81.723369 -43.812283 
L 82.605854 -43.812283 
L 83.488338 -43.812283 
L 84.370822 -43.812283 
L 85.253306 -43.812283 
L 86.13579 -43.812283 
L 87.018274 -43.812283 
L 87.900758 -43.812283 
L 88.783242 -43.812283 
L 89.665726 -43.812283 
L 90.54821 -43.812283 
L 91.430694 -43.812283 
L 92.313178 -43.812283 
L 93.195662 -43.812283 
L 94.078146 -43.812283 
L 94.96063 -43.812283 
L 95.843114 -43.812283 
L 96.725598 -43.812283 
L 97.608082 -43.812283 
L 98.490566 -43.812283 
L 99.37305 -43.812283 
L 100.255534 -43.812283 
L 101.138018 -43.812283 
L 102.020502 -43.812283 
L 102.902986 -43.812283 
L 103.78547 -43.812283 
L 104.667954 -43.812283 
L 105.550438 -43.812283 
L 106.432922 -43.812283 
L 107.315406 -43.812283 
L 108.19789 -43.812283 
L 109.080374 -43.812283 
L 109.962858 -43.812283 
L 110.845342 -43.812283 
L 111.727826 -43.812283 
L 112.610311 -43.812283 
L 113.492795 -43.812283 
L 114.375279 -43.812283 
L 115.257763 -43.812283 
L 116.140247 -43.812283 
L 117.022731 -43.812283 
L 117.905215 -43.812283 
L 118.787699 -43.812283 
L 119.670183 -43.812283 
L 120.552667 -43.812283 
L 121.435151 -43.812283 
L 122.317635 -43.812283 
L 123.200119 -43.812283 
L 124.082603 -43.812283 
L 124.965087 -43.812283 
L 125.847571 -43.812283 
L 126.730055 -43.812283 
L 127.612539 -43.812283 
L 128.495023 -43.812283 
L 129.377507 -43.812283 
L 130.259991 -43.812283 
L 131.142475 -43.812283 
L 132.024959 -43.812283 
L 132.907443 -43.812283 
L 133.789927 -43.812283 
L 134.672411 -43.812283 
L 135.554895 -43.812283 
L 136.437379 -43.812283 
L 137.319863 -43.812283 
L 138.202347 -43.812283 
L 139.084831 -43.812283 
L 139.967315 -43.812283 
L 140.849799 -43.812283 
L 141.732283 -43.812283 
L 142.614767 -43.812283 
L 143.497252 -43.812283 
L 144.379736 -43.812283 
L 145.26222 -43.812283 
L 146.144704 -43.812283 
L 147.027188 -43.812283 
L 147.909672 -43.812283 
L 148.792156 -43.812283 
L 149.67464 -43.812283 
L 150.557124 -43.812283 
L 151.439608 -43.812283 
L 152.322092 -43.812283 
L 153.204576 -43.812283 
L 154.08706 -43.812283 
L 154.969544 -43.812283 
L 155.852028 -43.812283 
L 156.734512 -43.812283 
L 157.616996 -43.812283 
L 158.49948 -43.812283 
L 159.381964 -43.812283 
L 160.264448 -43.812283 
L 161.146932 -43.812283 
L 162.029416 -43.812283 
L 162.9119 -43.812283 
L 163.794384 -43.812283 
L 164.676868 -43.812283 
L 165.559352 -43.812283 
L 166.441836 -43.812283 
L 167.32432 -43.812283 
L 168.206804 -43.812283 
L 169.089288 -43.812283 
L 169.971772 -43.812283 
L 170.854256 -43.812283 
L 171.73674 -43.812283 
L 172.619224 -43.812283 
L 173.501709 -43.812283 
L 174.384193 -43.812283 
L 175.266677 -43.812283 
L 176.149161 -43.812283 
L 177.031645 -43.812283 
L 177.914129 -43.812283 
L 178.796613 -43.812283 
L 179.679097 -43.812283 
L 180.561581 -43.812283 
L 181.444065 -43.812283 
L 182.326549 -43.812283 
L 183.209033 -43.812283 
L 184.091517 -43.812283 
L 184.974001 -43.812283 
L 185.856485 -43.812283 
L 186.738969 -43.812283 
L 187.621453 -43.812283 
L 187.621453 -44.6831 
L 187.621453 -44.6831 
L 186.738969 -44.800382 
L 185.856485 -44.946984 
L 184.974001 -45.052538 
L 184.091517 -45.307626 
L 183.209033 -45.143431 
L 182.326549 -45.075994 
L 181.444065 -45.219664 
L 180.561581 -45.272441 
L 179.679097 -45.386791 
L 178.796613 -45.606694 
L 177.914129 -45.641879 
L 177.031645 -45.870578 
L 176.149161 -45.7445 
L 175.266677 -45.829529 
L 174.384193 -45.990792 
L 173.501709 -46.008384 
L 172.619224 -45.929219 
L 171.73674 -45.84419 
L 170.854256 -45.756228 
L 169.971772 -45.803141 
L 169.089288 -45.776753 
L 168.206804 -45.876442 
L 167.32432 -46.01718 
L 166.441836 -46.005452 
L 165.559352 -45.905763 
L 164.676868 -46.081685 
L 163.794384 -46.064093 
L 162.9119 -46.040637 
L 162.029416 -46.281064 
L 161.146932 -46.26054 
L 160.264448 -46.38955 
L 159.381964 -46.471647 
L 158.49948 -46.54788 
L 157.616996 -46.741395 
L 156.734512 -46.999415 
L 155.852028 -47.310211 
L 154.969544 -47.46561 
L 154.08706 -47.377648 
L 153.204576 -47.582891 
L 152.322092 -47.688445 
L 151.439608 -47.873164 
L 150.557124 -48.101863 
L 149.67464 -48.342291 
L 148.792156 -48.374543 
L 147.909672 -48.157572 
L 147.027188 -48.101863 
L 146.144704 -48.181028 
L 145.26222 -48.066679 
L 144.379736 -48.145844 
L 143.497252 -48.266058 
L 142.614767 -48.093067 
L 141.732283 -47.937669 
L 140.849799 -48.069611 
L 139.967315 -48.324698 
L 139.084831 -48.477165 
L 138.202347 -48.632563 
L 137.319863 -49.034253 
L 136.437379 -49.142739 
L 135.554895 -49.280545 
L 134.672411 -49.40369 
L 133.789927 -49.623594 
L 132.907443 -49.38903 
L 132.024959 -49.289341 
L 131.142475 -49.608934 
L 130.259991 -49.822973 
L 129.377507 -49.778992 
L 128.495023 -50.010623 
L 127.612539 -49.884546 
L 126.730055 -50.054604 
L 125.847571 -50.054604 
L 124.965087 -50.204138 
L 124.082603 -50.33608 
L 123.200119 -50.075128 
L 122.317635 -49.969575 
L 121.435151 -49.93439 
L 120.552667 -49.872817 
L 119.670183 -49.802448 
L 118.787699 -49.670506 
L 117.905215 -49.80538 
L 117.022731 -49.787788 
L 116.140247 -49.893342 
L 115.257763 -50.113245 
L 114.375279 -50.069264 
L 113.492795 -50.438702 
L 112.610311 -50.353673 
L 111.727826 -50.362469 
L 110.845342 -50.770023 
L 109.962858 -50.523731 
L 109.080374 -50.843324 
L 108.19789 -51.148256 
L 107.315406 -51.083751 
L 106.432922 -51.033907 
L 105.550438 -50.599964 
L 104.667954 -50.514935 
L 103.78547 -50.532527 
L 102.902986 -50.318488 
L 102.020502 -50.382993 
L 101.138018 -50.259847 
L 100.255534 -50.101517 
L 99.37305 -50.095653 
L 98.490566 -50.010623 
L 97.608082 -49.902138 
L 96.725598 -49.79072 
L 95.843114 -49.696895 
L 94.96063 -49.679303 
L 94.078146 -49.855225 
L 93.195662 -49.585477 
L 92.313178 -49.576681 
L 91.430694 -49.50338 
L 90.54821 -49.638254 
L 89.665726 -49.623594 
L 88.783242 -49.553225 
L 87.900758 -49.723283 
L 87.018274 -49.386098 
L 86.13579 -49.060641 
L 85.253306 -49.051845 
L 84.370822 -48.817282 
L 83.488338 -48.600311 
L 82.605854 -48.55633 
L 81.723369 -48.617903 
L 80.840885 -48.54167 
L 79.958401 -48.301242 
L 79.075917 -48.436116 
L 78.193433 -48.225009 
L 77.310949 -48.098931 
L 76.428465 -47.873164 
L 75.545981 -47.779338 
L 74.663497 -47.357124 
L 73.781013 -47.201726 
L 72.898529 -47.1079 
L 72.016045 -47.096172 
L 71.133561 -46.858677 
L 70.251077 -47.075648 
L 69.368593 -47.005279 
L 68.486109 -46.929046 
L 67.603625 -46.987687 
L 66.721141 -47.060988 
L 65.838657 -47.028735 
L 64.956173 -46.993551 
L 64.073689 -46.767783 
L 63.191205 -46.568404 
L 62.308721 -46.2752 
L 61.426237 -46.149122 
L 60.543753 -46.090481 
L 59.661269 -46.011316 
L 58.778785 -45.996656 
L 57.896301 -45.732772 
L 57.013817 -45.609626 
L 56.131333 -45.410247 
L 55.248849 -46.069957 
L 54.366365 -45.891102 
L 53.483881 -45.694655 
L 52.601397 -45.498208 
L 51.718912 -45.216732 
L 50.836428 -44.944052 
L 49.953944 -44.820906 
L 49.07146 -44.680168 
L 48.188976 -44.577547 
z
"/>
    </defs>
    <g clip-path="url(#p58d6d3329c)">
     <use xlink:href="#m0fd0346186" x="0" y="164.409449" style="fill: #bfbfbf"/>
    </g>
   </g>
   <g id="line2d_1">
    <path d="M 48.188976 18.619273 
L 188.503937 18.619273 
" clip-path="url(#p58d6d3329c)" style="fill: none; stroke-dasharray: 1.3,0.9; stroke-dashoffset: 0; stroke: #767676; stroke-width: 0.5"/>
   </g>
   <g id="matplotlib.axis_1">
    <g id="xtick_1">
     <g id="line2d_2">
      <defs>
       <path id="m73cb6ca829" d="M 0 0 
L 0 2 
" style="stroke: #1a1a1a; stroke-width: 0.5"/>
      </defs>
      <g>
       <use xlink:href="#m73cb6ca829" x="48.188976" y="121.889764" style="fill: #1a1a1a; stroke: #1a1a1a; stroke-width: 0.5"/>
      </g>
     </g>
     <g id="text_1">
      <text style="font-size: 6px; font-family: 'Liberation Sans', 'Arial', 'Helvetica', 'DejaVu Sans', sans-serif; text-anchor: middle; fill: #1a1a1a" x="48.188976" y="130.057928" transform="rotate(-0 48.188976 130.057928)">−2</text>
     </g>
    </g>
    <g id="xtick_2">
     <g id="line2d_3">
      <g>
       <use xlink:href="#m73cb6ca829" x="83.267717" y="121.889764" style="fill: #1a1a1a; stroke: #1a1a1a; stroke-width: 0.5"/>
      </g>
     </g>
     <g id="text_2">
      <text style="font-size: 6px; font-family: 'Liberation Sans', 'Arial', 'Helvetica', 'DejaVu Sans', sans-serif; text-anchor: middle; fill: #1a1a1a" x="83.267717" y="130.057928" transform="rotate(-0 83.267717 130.057928)">−1</text>
     </g>
    </g>
    <g id="xtick_3">
     <g id="line2d_4">
      <g>
       <use xlink:href="#m73cb6ca829" x="118.346457" y="121.889764" style="fill: #1a1a1a; stroke: #1a1a1a; stroke-width: 0.5"/>
      </g>
     </g>
     <g id="text_3">
      <text style="font-size: 6px; font-family: 'Liberation Sans', 'Arial', 'Helvetica', 'DejaVu Sans', sans-serif; text-anchor: middle; fill: #1a1a1a" x="118.346457" y="130.057928" transform="rotate(-0 118.346457 130.057928)">0</text>
     </g>
    </g>
    <g id="xtick_4">
     <g id="line2d_5">
      <g>
       <use xlink:href="#m73cb6ca829" x="153.425197" y="121.889764" style="fill: #1a1a1a; stroke: #1a1a1a; stroke-width: 0.5"/>
      </g>
     </g>
     <g id="text_4">
      <text style="font-size: 6px; font-family: 'Liberation Sans', 'Arial', 'Helvetica', 'DejaVu Sans', sans-serif; text-anchor: middle; fill: #1a1a1a" x="153.425197" y="130.057928" transform="rotate(-0 153.425197 130.057928)">1</text>
     </g>
    </g>
    <g id="xtick_5">
     <g id="line2d_6">
      <g>
       <use xlink:href="#m73cb6ca829" x="188.503937" y="121.889764" style="fill: #1a1a1a; stroke: #1a1a1a; stroke-width: 0.5"/>
      </g>
     </g>
     <g id="text_5">
      <text style="font-size: 6px; font-family: 'Liberation Sans', 'Arial', 'Helvetica', 'DejaVu Sans', sans-serif; text-anchor: middle; fill: #1a1a1a" x="188.503937" y="130.057928" transform="rotate(-0 188.503937 130.057928)">2</text>
     </g>
    </g>
    <g id="text_6">
     <text style="font-size: 7px; font-family: 'Liberation Sans', 'Arial', 'Helvetica', 'DejaVu Sans', sans-serif; fill: #1a1a1a" transform="translate(66.791457 138.941473)">Organizational learning capability</text>
     <text style="font-size: 7px; font-family: 'Liberation Sans', 'Arial', 'Helvetica', 'DejaVu Sans', sans-serif; fill: #1a1a1a" transform="translate(62.1288 146.560125)">(standard deviations from the mean)</text>
    </g>
   </g>
   <g id="matplotlib.axis_2">
    <g id="ytick_1">
     <g id="line2d_7">
      <defs>
       <path id="m9b324360c7" d="M 0 0 
L -2 0 
" style="stroke: #1a1a1a; stroke-width: 0.5"/>
      </defs>
      <g>
       <use xlink:href="#m9b324360c7" x="48.188976" y="115.624169" style="fill: #1a1a1a; stroke: #1a1a1a; stroke-width: 0.5"/>
      </g>
     </g>
     <g id="text_7">
      <text style="font-size: 6px; font-family: 'Liberation Sans', 'Arial', 'Helvetica', 'DejaVu Sans', sans-serif; text-anchor: end; fill: #1a1a1a" x="44.388976" y="117.808251" transform="rotate(-0 44.388976 117.808251)">−2.5</text>
     </g>
    </g>
    <g id="ytick_2">
     <g id="line2d_8">
      <g>
       <use xlink:href="#m9b324360c7" x="48.188976" y="96.22319" style="fill: #1a1a1a; stroke: #1a1a1a; stroke-width: 0.5"/>
      </g>
     </g>
     <g id="text_8">
      <text style="font-size: 6px; font-family: 'Liberation Sans', 'Arial', 'Helvetica', 'DejaVu Sans', sans-serif; text-anchor: end; fill: #1a1a1a" x="44.388976" y="98.407272" transform="rotate(-0 44.388976 98.407272)">−2.0</text>
     </g>
    </g>
    <g id="ytick_3">
     <g id="line2d_9">
      <g>
       <use xlink:href="#m9b324360c7" x="48.188976" y="76.822211" style="fill: #1a1a1a; stroke: #1a1a1a; stroke-width: 0.5"/>
      </g>
     </g>
     <g id="text_9">
      <text style="font-size: 6px; font-family: 'Liberation Sans', 'Arial', 'Helvetica', 'DejaVu Sans', sans-serif; text-anchor: end; fill: #1a1a1a" x="44.388976" y="79.006293" transform="rotate(-0 44.388976 79.006293)">−1.5</text>
     </g>
    </g>
    <g id="ytick_4">
     <g id="line2d_10">
      <g>
       <use xlink:href="#m9b324360c7" x="48.188976" y="57.421231" style="fill: #1a1a1a; stroke: #1a1a1a; stroke-width: 0.5"/>
      </g>
     </g>
     <g id="text_10">
      <text style="font-size: 6px; font-family: 'Liberation Sans', 'Arial', 'Helvetica', 'DejaVu Sans', sans-serif; text-anchor: end; fill: #1a1a1a" x="44.388976" y="59.605313" transform="rotate(-0 44.388976 59.605313)">−1.0</text>
     </g>
    </g>
    <g id="ytick_5">
     <g id="line2d_11">
      <g>
       <use xlink:href="#m9b324360c7" x="48.188976" y="38.020252" style="fill: #1a1a1a; stroke: #1a1a1a; stroke-width: 0.5"/>
      </g>
     </g>
     <g id="text_11">
      <text style="font-size: 6px; font-family: 'Liberation Sans', 'Arial', 'Helvetica', 'DejaVu Sans', sans-serif; text-anchor: end; fill: #1a1a1a" x="44.388976" y="40.204334" transform="rotate(-0 44.388976 40.204334)">−0.5</text>
     </g>
    </g>
    <g id="ytick_6">
     <g id="line2d_12">
      <g>
       <use xlink:href="#m9b324360c7" x="48.188976" y="18.619273" style="fill: #1a1a1a; stroke: #1a1a1a; stroke-width: 0.5"/>
      </g>
     </g>
     <g id="text_12">
      <text style="font-size: 6px; font-family: 'Liberation Sans', 'Arial', 'Helvetica', 'DejaVu Sans', sans-serif; text-anchor: end; fill: #1a1a1a" x="44.388976" y="20.803355" transform="rotate(-0 44.388976 20.803355)">0.0</text>
     </g>
    </g>
    <g id="text_13">
     <text style="font-size: 7px; font-family: 'Liberation Sans', 'Arial', 'Helvetica', 'DejaVu Sans', sans-serif; fill: #1a1a1a" transform="translate(20.928146 111.157512) rotate(-90)">Marginal effect on the youth</text>
     <text style="font-size: 7px; font-family: 'Liberation Sans', 'Arial', 'Helvetica', 'DejaVu Sans', sans-serif; fill: #1a1a1a" transform="translate(28.546799 105.961105) rotate(-90)">employment share (p.p.)</text>
    </g>
   </g>
   <g id="FillBetweenPolyCollection_2">
    <defs>
     <path id="m4837007cc8" d="M 48.188976 -69.48027 
L 48.188976 -56.869293 
L 56.958661 -60.859867 
L 65.728346 -64.825813 
L 74.498031 -68.761698 
L 83.267717 -72.661023 
L 92.037402 -76.516295 
L 100.807087 -80.319368 
L 109.576772 -84.062169 
L 118.346457 -87.737823 
L 127.116142 -91.341933 
L 135.885827 -94.873566 
L 144.655512 -98.335483 
L 153.425197 -101.733482 
L 162.194882 -105.0752 
L 170.964567 -108.368862 
L 179.734252 -111.622354 
L 188.503937 -114.842689 
L 188.503937 -126.260314 
L 188.503937 -126.260314 
L 179.734252 -122.308559 
L 170.964567 -118.38996 
L 162.194882 -114.511533 
L 153.425197 -110.681161 
L 144.655512 -106.90707 
L 135.885827 -103.196896 
L 127.116142 -99.55644 
L 118.346457 -95.988459 
L 109.576772 -92.492023 
L 100.807087 -89.062735 
L 92.037402 -85.693717 
L 83.267717 -82.376899 
L 74.498031 -79.104135 
L 65.728346 -75.867929 
L 56.958661 -72.661785 
L 48.188976 -69.48027 
z
"/>
    </defs>
    <g clip-path="url(#p58d6d3329c)">
     <use xlink:href="#m4837007cc8" x="0" y="164.409449" style="fill: #0072b2; fill-opacity: 0.2"/>
    </g>
   </g>
   <g id="line2d_13">
    <path d="M 48.188976 101.234668 
L 56.958661 97.648623 
L 65.728346 94.062578 
L 74.498031 90.476533 
L 83.267717 86.890488 
L 92.037402 83.304443 
L 100.807087 79.718398 
L 109.576772 76.132353 
L 118.346457 72.546308 
L 127.116142 68.960262 
L 135.885827 65.374217 
L 144.655512 61.788172 
L 153.425197 58.202127 
L 162.194882 54.616082 
L 170.964567 51.030037 
L 179.734252 47.443992 
L 188.503937 43.857947 
" clip-path="url(#p58d6d3329c)" style="fill: none; stroke: #0072b2; stroke-width: 1.1; stroke-linecap: round"/>
   </g>
   <g id="patch_3">
    <path d="M 48.188976 121.889764 
L 48.188976 14.173228 
" style="fill: none; stroke: #1a1a1a; stroke-width: 0.5; stroke-linejoin: miter; stroke-linecap: square"/>
   </g>
   <g id="patch_4">
    <path d="M 48.188976 121.889764 
L 188.503937 121.889764 
" style="fill: none; stroke: #1a1a1a; stroke-width: 0.5; stroke-linejoin: miter; stroke-linecap: square"/>
   </g>
   <g id="line2d_14">
    <path d="M 83.267717 86.890488 
" clip-path="url(#p58d6d3329c)" style="fill: none; stroke: #0072b2; stroke-linecap: round"/>
    <defs>
     <path id="m12e40e530b" d="M 0 1.3 
C 0.344764 1.3 0.675454 1.163024 0.919239 0.919239 
C 1.163024 0.675454 1.3 0.344764 1.3 0 
C 1.3 -0.344764 1.163024 -0.675454 0.919239 -0.919239 
C 0.675454 -1.163024 0.344764 -1.3 0 -1.3 
C -0.344764 -1.3 -0.675454 -1.163024 -0.919239 -0.919239 
C -1.163024 -0.675454 -1.3 -0.344764 -1.3 0 
C -1.3 0.344764 -1.163024 0.675454 -0.919239 0.919239 
C -0.675454 1.163024 -0.344764 1.3 0 1.3 
z
" style="stroke: #ffffff; stroke-width: 0.4"/>
    </defs>
    <g clip-path="url(#p58d6d3329c)">
     <use xlink:href="#m12e40e530b" x="83.267717" y="86.890488" style="fill: #0072b2; stroke: #ffffff; stroke-width: 0.4"/>
    </g>
   </g>
   <g id="line2d_15">
    <path d="M 153.425197 58.202127 
" clip-path="url(#p58d6d3329c)" style="fill: none; stroke: #0072b2; stroke-linecap: round"/>
    <g clip-path="url(#p58d6d3329c)">
     <use xlink:href="#m12e40e530b" x="153.425197" y="58.202127" style="fill: #0072b2; stroke: #ffffff; stroke-width: 0.4"/>
    </g>
   </g>
   <g id="text_14">
    <text style="font-size: 6px; font-family: 'Liberation Sans', 'Arial', 'Helvetica', 'DejaVu Sans', sans-serif; text-anchor: start; fill: #0072b2" x="89.58189" y="96.638365" transform="rotate(-0 89.58189 96.638365)">−1.76</text>
   </g>
   <g id="text_15">
    <text style="font-size: 6px; font-family: 'Liberation Sans', 'Arial', 'Helvetica', 'DejaVu Sans', sans-serif; text-anchor: end; fill: #0072b2" x="147.111024" y="51.559719" transform="rotate(-0 147.111024 51.559719)">−1.02</text>
   </g>
  </g>
  <g id="axes_2">
   <g id="patch_5">
    <path d="M 225.354331 121.889764 
L 365.669291 121.889764 
L 365.669291 14.173228 
L 225.354331 14.173228 
z
" style="fill: #ffffff"/>
   </g>
   <g id="FillBetweenPolyCollection_3">
    <defs>
     <path id="mf9c658806f" d="M 225.354331 -44.243811 
L 225.354331 -43.812283 
L 226.236815 -43.812283 
L 227.119299 -43.812283 
L 228.001783 -43.812283 
L 228.884267 -43.812283 
L 229.766751 -43.812283 
L 230.649235 -43.812283 
L 231.531719 -43.812283 
L 232.414203 -43.812283 
L 233.296687 -43.812283 
L 234.179171 -43.812283 
L 235.061655 -43.812283 
L 235.944139 -43.812283 
L 236.826623 -43.812283 
L 237.709107 -43.812283 
L 238.591591 -43.812283 
L 239.474075 -43.812283 
L 240.356559 -43.812283 
L 241.239043 -43.812283 
L 242.121527 -43.812283 
L 243.004011 -43.812283 
L 243.886495 -43.812283 
L 244.768979 -43.812283 
L 245.651463 -43.812283 
L 246.533947 -43.812283 
L 247.416431 -43.812283 
L 248.298915 -43.812283 
L 249.181399 -43.812283 
L 250.063884 -43.812283 
L 250.946368 -43.812283 
L 251.828852 -43.812283 
L 252.711336 -43.812283 
L 253.59382 -43.812283 
L 254.476304 -43.812283 
L 255.358788 -43.812283 
L 256.241272 -43.812283 
L 257.123756 -43.812283 
L 258.00624 -43.812283 
L 258.888724 -43.812283 
L 259.771208 -43.812283 
L 260.653692 -43.812283 
L 261.536176 -43.812283 
L 262.41866 -43.812283 
L 263.301144 -43.812283 
L 264.183628 -43.812283 
L 265.066112 -43.812283 
L 265.948596 -43.812283 
L 266.83108 -43.812283 
L 267.713564 -43.812283 
L 268.596048 -43.812283 
L 269.478532 -43.812283 
L 270.361016 -43.812283 
L 271.2435 -43.812283 
L 272.125984 -43.812283 
L 273.008468 -43.812283 
L 273.890952 -43.812283 
L 274.773436 -43.812283 
L 275.65592 -43.812283 
L 276.538404 -43.812283 
L 277.420888 -43.812283 
L 278.303372 -43.812283 
L 279.185856 -43.812283 
L 280.068341 -43.812283 
L 280.950825 -43.812283 
L 281.833309 -43.812283 
L 282.715793 -43.812283 
L 283.598277 -43.812283 
L 284.480761 -43.812283 
L 285.363245 -43.812283 
L 286.245729 -43.812283 
L 287.128213 -43.812283 
L 288.010697 -43.812283 
L 288.893181 -43.812283 
L 289.775665 -43.812283 
L 290.658149 -43.812283 
L 291.540633 -43.812283 
L 292.423117 -43.812283 
L 293.305601 -43.812283 
L 294.188085 -43.812283 
L 295.070569 -43.812283 
L 295.953053 -43.812283 
L 296.835537 -43.812283 
L 297.718021 -43.812283 
L 298.600505 -43.812283 
L 299.482989 -43.812283 
L 300.365473 -43.812283 
L 301.247957 -43.812283 
L 302.130441 -43.812283 
L 303.012925 -43.812283 
L 303.895409 -43.812283 
L 304.777893 -43.812283 
L 305.660377 -43.812283 
L 306.542861 -43.812283 
L 307.425345 -43.812283 
L 308.307829 -43.812283 
L 309.190313 -43.812283 
L 310.072798 -43.812283 
L 310.955282 -43.812283 
L 311.837766 -43.812283 
L 312.72025 -43.812283 
L 313.602734 -43.812283 
L 314.485218 -43.812283 
L 315.367702 -43.812283 
L 316.250186 -43.812283 
L 317.13267 -43.812283 
L 318.015154 -43.812283 
L 318.897638 -43.812283 
L 319.780122 -43.812283 
L 320.662606 -43.812283 
L 321.54509 -43.812283 
L 322.427574 -43.812283 
L 323.310058 -43.812283 
L 324.192542 -43.812283 
L 325.075026 -43.812283 
L 325.95751 -43.812283 
L 326.839994 -43.812283 
L 327.722478 -43.812283 
L 328.604962 -43.812283 
L 329.487446 -43.812283 
L 330.36993 -43.812283 
L 331.252414 -43.812283 
L 332.134898 -43.812283 
L 333.017382 -43.812283 
L 333.899866 -43.812283 
L 334.78235 -43.812283 
L 335.664834 -43.812283 
L 336.547318 -43.812283 
L 337.429802 -43.812283 
L 338.312286 -43.812283 
L 339.19477 -43.812283 
L 340.077254 -43.812283 
L 340.959739 -43.812283 
L 341.842223 -43.812283 
L 342.724707 -43.812283 
L 343.607191 -43.812283 
L 344.489675 -43.812283 
L 345.372159 -43.812283 
L 346.254643 -43.812283 
L 347.137127 -43.812283 
L 348.019611 -43.812283 
L 348.902095 -43.812283 
L 349.784579 -43.812283 
L 350.667063 -43.812283 
L 351.549547 -43.812283 
L 352.432031 -43.812283 
L 353.314515 -43.812283 
L 354.196999 -43.812283 
L 355.079483 -43.812283 
L 355.961967 -43.812283 
L 356.844451 -43.812283 
L 357.726935 -43.812283 
L 358.609419 -43.812283 
L 359.491903 -43.812283 
L 360.374387 -43.812283 
L 361.256871 -43.812283 
L 362.139355 -43.812283 
L 363.021839 -43.812283 
L 363.904323 -43.812283 
L 364.786807 -43.812283 
L 364.786807 -44.480049 
L 364.786807 -44.480049 
L 363.904323 -44.672189 
L 363.021839 -44.927326 
L 362.139355 -45.031271 
L 361.256871 -45.23916 
L 360.374387 -45.333655 
L 359.491903 -45.494297 
L 358.609419 -45.63604 
L 357.726935 -45.654939 
L 356.844451 -45.554144 
L 355.961967 -45.503747 
L 355.079483 -45.374603 
L 354.196999 -45.667538 
L 353.314515 -45.658089 
L 352.432031 -45.840779 
L 351.549547 -46.051818 
L 350.667063 -45.973072 
L 349.784579 -45.973072 
L 348.902095 -46.02347 
L 348.019611 -46.184112 
L 347.137127 -46.316405 
L 346.254643 -46.335304 
L 345.372159 -46.640838 
L 344.489675 -46.565242 
L 343.607191 -46.41405 
L 342.724707 -46.706985 
L 341.842223 -46.766832 
L 340.959739 -47.040868 
L 340.077254 -47.062916 
L 339.19477 -47.154262 
L 338.312286 -47.154262 
L 337.429802 -46.911724 
L 336.547318 -46.99362 
L 335.664834 -47.031418 
L 334.78235 -47.201509 
L 333.899866 -47.415698 
L 333.017382 -47.412548 
L 332.134898 -47.784229 
L 331.252414 -48.064565 
L 330.36993 -47.982669 
L 329.487446 -48.34805 
L 328.604962 -48.527591 
L 327.722478 -48.672484 
L 326.839994 -48.606337 
L 325.95751 -48.628386 
L 325.075026 -48.74493 
L 324.192542 -48.533891 
L 323.310058 -48.483493 
L 322.427574 -48.858324 
L 321.54509 -48.694532 
L 320.662606 -48.798477 
L 319.780122 -48.974868 
L 318.897638 -49.160709 
L 318.015154 -49.447344 
L 317.13267 -49.570187 
L 316.250186 -49.778077 
L 315.367702 -49.768627 
L 314.485218 -49.844223 
L 313.602734 -50.143458 
L 312.72025 -50.253702 
L 311.837766 -50.600185 
L 310.955282 -50.87422 
L 310.072798 -50.515139 
L 309.190313 -50.68523 
L 308.307829 -50.782875 
L 307.425345 -50.773426 
L 306.542861 -50.801774 
L 305.660377 -50.934067 
L 304.777893 -50.915168 
L 303.895409 -50.723028 
L 303.012925 -50.455292 
L 302.130441 -50.858471 
L 301.247957 -50.899419 
L 300.365473 -50.924618 
L 299.482989 -51.07581 
L 298.600505 -50.975015 
L 297.718021 -50.908869 
L 296.835537 -50.789175 
L 295.953053 -51.009663 
L 295.070569 -51.08526 
L 294.188085 -51.091559 
L 293.305601 -50.968716 
L 292.423117 -50.930918 
L 291.540633 -50.893119 
L 290.658149 -51.012813 
L 289.775665 -51.060061 
L 288.893181 -51.148256 
L 288.010697 -50.908869 
L 287.128213 -50.861621 
L 286.245729 -50.69783 
L 285.363245 -50.571836 
L 284.480761 -50.398595 
L 283.598277 -50.480491 
L 282.715793 -50.363947 
L 281.833309 -50.272601 
L 280.950825 -50.253702 
L 280.068341 -50.319849 
L 279.185856 -49.995416 
L 278.303372 -50.055263 
L 277.420888 -49.90092 
L 276.538404 -49.897771 
L 275.65592 -49.960767 
L 274.773436 -49.693031 
L 273.890952 -49.617435 
L 273.008468 -49.311901 
L 272.125984 -49.154409 
L 271.2435 -49.355998 
L 270.361016 -49.230005 
L 269.478532 -49.437894 
L 268.596048 -49.378047 
L 267.713564 -49.056764 
L 266.83108 -49.381197 
L 265.948596 -49.230005 
L 265.066112 -49.107161 
L 264.183628 -48.94337 
L 263.301144 -48.845725 
L 262.41866 -48.801627 
L 261.536176 -48.792177 
L 260.653692 -48.606337 
L 259.771208 -48.700832 
L 258.888724 -48.571689 
L 258.00624 -48.461444 
L 257.123756 -48.559089 
L 256.241272 -48.467744 
L 255.358788 -48.196858 
L 254.476304 -48.272454 
L 253.59382 -47.976369 
L 252.711336 -48.039366 
L 251.828852 -47.837777 
L 250.946368 -47.516493 
L 250.063884 -47.475545 
L 249.181399 -47.255056 
L 248.298915 -47.056617 
L 247.416431 -46.952672 
L 246.533947 -46.546343 
L 245.651463 -46.332154 
L 244.768979 -46.124265 
L 243.886495 -45.988822 
L 243.004011 -46.02662 
L 242.121527 -45.935274 
L 241.239043 -45.928975 
L 240.356559 -45.938424 
L 239.474075 -45.903776 
L 238.591591 -45.925825 
L 237.709107 -45.891177 
L 236.826623 -45.951024 
L 235.944139 -45.869128 
L 235.061655 -45.673838 
L 234.179171 -45.387203 
L 233.296687 -45.4376 
L 232.414203 -45.374603 
L 231.531719 -45.339955 
L 230.649235 -45.179313 
L 229.766751 -45.015522 
L 228.884267 -44.823381 
L 228.001783 -44.65014 
L 227.119299 -44.486349 
L 226.236815 -44.458 
L 225.354331 -44.243811 
z
"/>
    </defs>
    <g clip-path="url(#pe5e090a5b9)">
     <use xlink:href="#mf9c658806f" x="0" y="164.409449" style="fill: #bfbfbf"/>
    </g>
   </g>
   <g id="line2d_16">
    <path d="M 225.354331 18.619273 
L 365.669291 18.619273 
" clip-path="url(#pe5e090a5b9)" style="fill: none; stroke-dasharray: 1.3,0.9; stroke-dashoffset: 0; stroke: #767676; stroke-width: 0.5"/>
   </g>
   <g id="matplotlib.axis_3">
    <g id="xtick_6">
     <g id="line2d_17">
      <g>
       <use xlink:href="#m73cb6ca829" x="225.354331" y="121.889764" style="fill: #1a1a1a; stroke: #1a1a1a; stroke-width: 0.5"/>
      </g>
     </g>
     <g id="text_16">
      <text style="font-size: 6px; font-family: 'Liberation Sans', 'Arial', 'Helvetica', 'DejaVu Sans', sans-serif; text-anchor: middle; fill: #1a1a1a" x="225.354331" y="130.057928" transform="rotate(-0 225.354331 130.057928)">−2</text>
     </g>
    </g>
    <g id="xtick_7">
     <g id="line2d_18">
      <g>
       <use xlink:href="#m73cb6ca829" x="260.433071" y="121.889764" style="fill: #1a1a1a; stroke: #1a1a1a; stroke-width: 0.5"/>
      </g>
     </g>
     <g id="text_17">
      <text style="font-size: 6px; font-family: 'Liberation Sans', 'Arial', 'Helvetica', 'DejaVu Sans', sans-serif; text-anchor: middle; fill: #1a1a1a" x="260.433071" y="130.057928" transform="rotate(-0 260.433071 130.057928)">−1</text>
     </g>
    </g>
    <g id="xtick_8">
     <g id="line2d_19">
      <g>
       <use xlink:href="#m73cb6ca829" x="295.511811" y="121.889764" style="fill: #1a1a1a; stroke: #1a1a1a; stroke-width: 0.5"/>
      </g>
     </g>
     <g id="text_18">
      <text style="font-size: 6px; font-family: 'Liberation Sans', 'Arial', 'Helvetica', 'DejaVu Sans', sans-serif; text-anchor: middle; fill: #1a1a1a" x="295.511811" y="130.057928" transform="rotate(-0 295.511811 130.057928)">0</text>
     </g>
    </g>
    <g id="xtick_9">
     <g id="line2d_20">
      <g>
       <use xlink:href="#m73cb6ca829" x="330.590551" y="121.889764" style="fill: #1a1a1a; stroke: #1a1a1a; stroke-width: 0.5"/>
      </g>
     </g>
     <g id="text_19">
      <text style="font-size: 6px; font-family: 'Liberation Sans', 'Arial', 'Helvetica', 'DejaVu Sans', sans-serif; text-anchor: middle; fill: #1a1a1a" x="330.590551" y="130.057928" transform="rotate(-0 330.590551 130.057928)">1</text>
     </g>
    </g>
    <g id="xtick_10">
     <g id="line2d_21">
      <g>
       <use xlink:href="#m73cb6ca829" x="365.669291" y="121.889764" style="fill: #1a1a1a; stroke: #1a1a1a; stroke-width: 0.5"/>
      </g>
     </g>
     <g id="text_20">
      <text style="font-size: 6px; font-family: 'Liberation Sans', 'Arial', 'Helvetica', 'DejaVu Sans', sans-serif; text-anchor: middle; fill: #1a1a1a" x="365.669291" y="130.057928" transform="rotate(-0 365.669291 130.057928)">2</text>
     </g>
    </g>
    <g id="text_21">
     <text style="font-size: 7px; font-family: 'Liberation Sans', 'Arial', 'Helvetica', 'DejaVu Sans', sans-serif; fill: #1a1a1a" transform="translate(266.722124 138.941473)">Relative labor cost</text>
     <text style="font-size: 7px; font-family: 'Liberation Sans', 'Arial', 'Helvetica', 'DejaVu Sans', sans-serif; fill: #1a1a1a" transform="translate(239.294155 146.560125)">(standard deviations from the mean)</text>
    </g>
   </g>
   <g id="matplotlib.axis_4">
    <g id="ytick_7">
     <g id="line2d_22">
      <g>
       <use xlink:href="#m9b324360c7" x="225.354331" y="115.624169" style="fill: #1a1a1a; stroke: #1a1a1a; stroke-width: 0.5"/>
      </g>
     </g>
    </g>
    <g id="ytick_8">
     <g id="line2d_23">
      <g>
       <use xlink:href="#m9b324360c7" x="225.354331" y="96.22319" style="fill: #1a1a1a; stroke: #1a1a1a; stroke-width: 0.5"/>
      </g>
     </g>
    </g>
    <g id="ytick_9">
     <g id="line2d_24">
      <g>
       <use xlink:href="#m9b324360c7" x="225.354331" y="76.822211" style="fill: #1a1a1a; stroke: #1a1a1a; stroke-width: 0.5"/>
      </g>
     </g>
    </g>
    <g id="ytick_10">
     <g id="line2d_25">
      <g>
       <use xlink:href="#m9b324360c7" x="225.354331" y="57.421231" style="fill: #1a1a1a; stroke: #1a1a1a; stroke-width: 0.5"/>
      </g>
     </g>
    </g>
    <g id="ytick_11">
     <g id="line2d_26">
      <g>
       <use xlink:href="#m9b324360c7" x="225.354331" y="38.020252" style="fill: #1a1a1a; stroke: #1a1a1a; stroke-width: 0.5"/>
      </g>
     </g>
    </g>
    <g id="ytick_12">
     <g id="line2d_27">
      <g>
       <use xlink:href="#m9b324360c7" x="225.354331" y="18.619273" style="fill: #1a1a1a; stroke: #1a1a1a; stroke-width: 0.5"/>
      </g>
     </g>
    </g>
   </g>
   <g id="FillBetweenPolyCollection_4">
    <defs>
     <path id="m173b794a86" d="M 225.354331 -121.069456 
L 225.354331 -108.683879 
L 234.124016 -106.217347 
L 242.893701 -103.7225 
L 251.663386 -101.192915 
L 260.433071 -98.62097 
L 269.202756 -95.99804 
L 277.972441 -93.315093 
L 286.742126 -90.563767 
L 295.511811 -87.737823 
L 304.281496 -84.834525 
L 313.051181 -81.855323 
L 321.820866 -78.805487 
L 330.590551 -75.692877 
L 339.360236 -72.526455 
L 348.129921 -69.315059 
L 356.899606 -66.066662 
L 365.669291 -62.788068 
L 365.669291 -74.911163 
L 365.669291 -74.911163 
L 356.899606 -77.38595 
L 348.129921 -79.890935 
L 339.360236 -82.43292 
L 330.590551 -85.019879 
L 321.820866 -87.660651 
L 313.051181 -90.364196 
L 304.281496 -93.138376 
L 295.511811 -95.988459 
L 286.742126 -98.915897 
L 277.972441 -101.917952 
L 269.202756 -104.988387 
L 260.433071 -108.118838 
L 251.663386 -111.300275 
L 242.893701 -114.524071 
L 234.124016 -117.782606 
L 225.354331 -121.069456 
z
"/>
    </defs>
    <g clip-path="url(#pe5e090a5b9)">
     <use xlink:href="#m173b794a86" x="0" y="164.409449" style="fill: #d55e00; fill-opacity: 0.2"/>
    </g>
   </g>
   <g id="line2d_28">
    <path d="M 225.354331 49.532782 
L 234.124016 52.409472 
L 242.893701 55.286163 
L 251.663386 58.162854 
L 260.433071 61.039545 
L 269.202756 63.916235 
L 277.972441 66.792926 
L 286.742126 69.669617 
L 295.511811 72.546308 
L 304.281496 75.422998 
L 313.051181 78.299689 
L 321.820866 81.17638 
L 330.590551 84.05307 
L 339.360236 86.929761 
L 348.129921 89.806452 
L 356.899606 92.683143 
L 365.669291 95.559833 
" clip-path="url(#pe5e090a5b9)" style="fill: none; stroke: #d55e00; stroke-width: 1.1; stroke-linecap: round"/>
   </g>
   <g id="patch_6">
    <path d="M 225.354331 121.889764 
L 225.354331 14.173228 
" style="fill: none; stroke: #1a1a1a; stroke-width: 0.5; stroke-linejoin: miter; stroke-linecap: square"/>
   </g>
   <g id="patch_7">
    <path d="M 225.354331 121.889764 
L 365.669291 121.889764 
" style="fill: none; stroke: #1a1a1a; stroke-width: 0.5; stroke-linejoin: miter; stroke-linecap: square"/>
   </g>
   <g id="line2d_29">
    <path d="M 260.433071 61.039545 
" clip-path="url(#pe5e090a5b9)" style="fill: none; stroke: #d55e00; stroke-linecap: round"/>
    <defs>
     <path id="m3ed4bc1db0" d="M 0 1.3 
C 0.344764 1.3 0.675454 1.163024 0.919239 0.919239 
C 1.163024 0.675454 1.3 0.344764 1.3 0 
C 1.3 -0.344764 1.163024 -0.675454 0.919239 -0.919239 
C 0.675454 -1.163024 0.344764 -1.3 0 -1.3 
C -0.344764 -1.3 -0.675454 -1.163024 -0.919239 -0.919239 
C -1.163024 -0.675454 -1.3 -0.344764 -1.3 0 
C -1.3 0.344764 -1.163024 0.675454 -0.919239 0.919239 
C -0.675454 1.163024 -0.344764 1.3 0 1.3 
z
" style="stroke: #ffffff; stroke-width: 0.4"/>
    </defs>
    <g clip-path="url(#pe5e090a5b9)">
     <use xlink:href="#m3ed4bc1db0" x="260.433071" y="61.039545" style="fill: #d55e00; stroke: #ffffff; stroke-width: 0.4"/>
    </g>
   </g>
   <g id="line2d_30">
    <path d="M 330.590551 84.05307 
" clip-path="url(#pe5e090a5b9)" style="fill: none; stroke: #d55e00; stroke-linecap: round"/>
    <g clip-path="url(#pe5e090a5b9)">
     <use xlink:href="#m3ed4bc1db0" x="330.590551" y="84.05307" style="fill: #d55e00; stroke: #ffffff; stroke-width: 0.4"/>
    </g>
   </g>
   <g id="text_22">
    <text style="font-size: 6px; font-family: 'Liberation Sans', 'Arial', 'Helvetica', 'DejaVu Sans', sans-serif; text-anchor: start; fill: #d55e00" x="266.747244" y="70.787422" transform="rotate(-0 266.747244 70.787422)">−1.09</text>
   </g>
   <g id="text_23">
    <text style="font-size: 6px; font-family: 'Liberation Sans', 'Arial', 'Helvetica', 'DejaVu Sans', sans-serif; text-anchor: end; fill: #d55e00" x="324.276378" y="77.410662" transform="rotate(-0 324.276378 77.410662)">−1.69</text>
   </g>
  </g>
  <g id="text_24">
   <text style="font-weight: 700; font-size: 8px; font-family: 'Liberation Sans', 'Arial', 'Helvetica', 'DejaVu Sans', sans-serif; text-anchor: start; fill: #1a1a1a" x="8.503937" y="6.820343" transform="rotate(-0 8.503937 6.820343)">a</text>
  </g>
  <g id="text_25">
   <text style="font-weight: 700; font-size: 8px; font-family: 'Liberation Sans', 'Arial', 'Helvetica', 'DejaVu Sans', sans-serif; text-anchor: start; fill: #1a1a1a" x="208.346457" y="6.820343" transform="rotate(-0 208.346457 6.820343)">b</text>
  </g>
 </g>
 <defs>
  <clipPath id="p58d6d3329c">
   <rect x="48.188976" y="14.173228" width="140.314961" height="107.716535"/>
  </clipPath>
  <clipPath id="pe5e090a5b9">
   <rect x="225.354331" y="14.173228" width="140.314961" height="107.716535"/>
  </clipPath>
 </defs>
</svg>
